<?xml version="1.0" encoding="utf-8"?>
<!-- Generator: Adobe Illustrator 16.0.0, SVG Export Plug-In . SVG Version: 6.00 Build 0)  -->
<!DOCTYPE svg PUBLIC "-//W3C//DTD SVG 1.1//EN" "http://www.w3.org/Graphics/SVG/1.1/DTD/svg11.dtd">
<svg version="1.1" id="Layer_4" xmlns="http://www.w3.org/2000/svg" xmlns:xlink="http://www.w3.org/1999/xlink" x="0px" y="0px"
	 width="100px" height="100px" viewBox="0 0 100 100" enable-background="new 0 0 100 100" xml:space="preserve">
<path d="M59.855,71.744c0-0.936,0.758-1.691,1.691-1.691c0.936,0,1.693,0.756,1.693,1.691s-0.758,1.691-1.693,1.691
	C60.613,73.436,59.855,72.68,59.855,71.744z M95.133,60.701v18.705c0,0.66-0.535,1.195-1.195,1.195H16.721
	c-0.66,0-1.195-0.535-1.195-1.195v-7.912c-0.266,0.154-0.57,0.25-0.902,0.25H9.215v0.48c0,0.662-0.535,1.199-1.199,1.199H6.068
	c-0.664,0-1.201-0.537-1.201-1.199V31.693c0-0.586,0.42-1.072,0.975-1.178v-9.918c0-0.662,0.537-1.199,1.199-1.199
	s1.199,0.537,1.199,1.199v9.918c0.555,0.105,0.975,0.592,0.975,1.178v36.434h5.408c0.332,0,0.637,0.094,0.902,0.25v-7.676
	c0-0.66,0.535-1.195,1.195-1.195h12.736v6.666h2.389v-6.666h4.279v6.666h2.387v-6.666h4.578v6.666h2.389v-6.666h48.459
	C94.598,59.506,95.133,60.041,95.133,60.701z M68.314,66.271h16.072v-2.986H68.314V66.271z M84.783,69.008H26.672v5.373h58.111
	V69.008z M70.006,73.436c0.936,0,1.693-0.756,1.693-1.691s-0.758-1.691-1.693-1.691s-1.691,0.756-1.691,1.691
	S69.07,73.436,70.006,73.436z M78.963,73.436c0.936,0,1.691-0.756,1.691-1.691s-0.756-1.691-1.691-1.691s-1.693,0.756-1.693,1.691
	S78.027,73.436,78.963,73.436z"/>
</svg>
