<?xml version="1.0" encoding="utf-8"?>
<!-- Generator: Adobe Illustrator 16.0.4, SVG Export Plug-In . SVG Version: 6.00 Build 0)  -->
<!DOCTYPE svg PUBLIC "-//W3C//DTD SVG 1.1//EN" "http://www.w3.org/Graphics/SVG/1.1/DTD/svg11.dtd">
<svg version="1.1" id="Layer_1" xmlns="http://www.w3.org/2000/svg" xmlns:xlink="http://www.w3.org/1999/xlink" x="0px" y="0px"
	 width="26px" height="26px" viewBox="0 0 26 26" enable-background="new 0 0 26 26" xml:space="preserve">
<g>
	<path fill="#333333" d="M18,24h-8c-0.551,0-1,0.436-1,1c0,0.418,0,1,0,1h10v-1C19,24.449,18.551,24,18,24z"/>
	<path fill="#333333" d="M6,2H1C0.448,2,0,2.448,0,3v22c0,0.553,0.448,1,1,1h5c0.552,0,1-0.447,1-1V3C7,2.448,6.552,2,6,2z
		 M3.5,22.156c-0.915,0-1.656-0.741-1.656-1.656s0.741-1.656,1.656-1.656c0.914,0,1.656,0.741,1.656,1.656S4.414,22.156,3.5,22.156z
		"/>
	<path fill="#333333" d="M23,2H9v2h14c0.551,0,1,0.449,1,1v11c0,0.551-0.449,1-1,1H9v4h2v1c0,0.551,0.449,1,1,1h4
		c0.551,0,1-0.438,1-1c0-0.158,0-0.551,0-1h6c1.656,0,3-1.344,3-3V5C26,3.344,24.656,2,23,2z"/>
</g>
</svg>
