<?xml version="1.0" encoding="iso-8859-1"?>
<!-- Generator: Adobe Illustrator 16.0.4, SVG Export Plug-In . SVG Version: 6.00 Build 0)  -->
<!DOCTYPE svg PUBLIC "-//W3C//DTD SVG 1.1//EN" "http://www.w3.org/Graphics/SVG/1.1/DTD/svg11.dtd">
<svg version="1.1" id="Capa_1" xmlns="http://www.w3.org/2000/svg" xmlns:xlink="http://www.w3.org/1999/xlink" x="0px" y="0px"
	 width="64px" height="64px" viewBox="0 0 64 64" style="enable-background:new 0 0 64 64;" xml:space="preserve">
<path d="M57.641,55.63l-1.884,1.851c-4.458,4.377-11.622,4.313-16.001-0.146l-22.86-23.276c-2.249-2.29-3.317-5.293-3.228-8.267
	l-4.155-4.23L22.833,8.48l4.422,4.503c2.794,0.099,5.558,1.217,7.671,3.369l22.86,23.277C62.164,44.087,62.1,51.251,57.641,55.63z
	 M20.152,8.332L9.297,18.991l-7.374-7.508L12.778,0.824L20.152,8.332z M9.322,16.164l8.001-7.857l-4.571-4.655L4.751,11.51
	L9.322,16.164z M6.519,11.516l1.71,1.741l2.517-2.472L9.036,9.044L6.519,11.516z M12.82,5.395l-2.517,2.472l1.709,1.741l2.517-2.472
	L12.82,5.395z"/>
</svg>
